<?xml version="1.0" encoding="utf-8"?>
<!-- Generator: Adobe Illustrator 24.0.2, SVG Export Plug-In . SVG Version: 6.00 Build 0)  -->
<svg version="1.1" xmlns="http://www.w3.org/2000/svg" xmlns:xlink="http://www.w3.org/1999/xlink" x="0px" y="0px"
	 viewBox="0 0 100 100" style="enable-background:new 0 0 100 100;" xml:space="preserve">
<style type="text/css">
	.st0{fill:#FFFFFF;}
</style>
<g id="background">
</g>
<g id="object">
	<g>
		<g>
			<path class="st0" d="M81.89,26.62l-0.5,4.43l2.5-3.64c0.27-0.39,0.11-0.92-0.32-1.11l-0.63-0.28
				C82.48,25.81,81.95,26.12,81.89,26.62z"/>
			<path class="st0" d="M85.52,30.88l-4.45-0.25l3.77,2.29c0.4,0.25,0.93,0.06,1.1-0.38l0.24-0.65
				C86.36,31.42,86.03,30.91,85.52,30.88z"/>
			<path class="st0" d="M84.89,28.17l-3.5,2.76l4.34-0.78c0.46-0.08,0.74-0.57,0.57-1.01l-0.25-0.65
				C85.87,28.02,85.28,27.86,84.89,28.17z"/>
			<g>
				<path class="st0" d="M84.38,34.04l-3.05-3.25l1.16,4.26c0.12,0.46,0.63,0.69,1.06,0.48l0.62-0.3
					C84.62,35.01,84.73,34.41,84.38,34.04z"/>
				<g>
					<path class="st0" d="M62.46,68.68c1.83-1.21,3.66-2.41,5.5-3.59c8.51-5.43,17.49-10.51,27.14-13.56
						c-0.42,0.02-0.86,0.04-1.31,0.06c-3.45,0.17-6.92,0.4-10.39,0.73l-2.1-20.54l0.16-0.71l0.03,0.04l-0.02-0.11l0.01-0.06
						l0.24-0.15l-0.21,0.01l0.02-0.1l-0.09,0.1l-0.01,0l-0.62-4.1c-0.08-0.5-0.62-0.79-1.07-0.56l-0.62,0.3
						c-0.42,0.21-0.56,0.75-0.27,1.13l2.08,2.8l-3.04-2.36c-0.4-0.31-0.99-0.15-1.17,0.33L76.49,29c-0.17,0.44,0.11,0.93,0.58,1.01
						l4.12,0.71l0.08,0.11l-0.07,0l-0.01-0.05l0,0.05l-3.9,0.25c-0.51,0.03-0.84,0.55-0.66,1.02l0.25,0.65
						c0.17,0.44,0.7,0.62,1.1,0.37l3.19-1.97v0l-2.55,2.93c-0.33,0.38-0.2,0.98,0.26,1.18l0.63,0.28c0.43,0.19,0.93-0.06,1.04-0.52
						l0.49-2.11l-1.47,19.83c-1.12,0.13-2.23,0.28-3.34,0.45L76,47.39l-6.76-5.4l-6.08,5.72v8.25c-2.2,0.64-4.36,1.38-6.48,2.24
						c-0.89,0.36-1.74,0.76-2.6,1.17c-0.27,0.13-2.23,1.39-2.39,1.3c1.64,1.01,3.24,2.1,4.79,3.23
						C58.53,65.41,60.53,67.01,62.46,68.68z M67.76,47.26l1.84-1.48l2.04,1.4l0.11,2.43l-3.98,0.03V47.26z"/>
					<path class="st0" d="M64.63,70.62c3.08,2.82,5.99,5.81,8.76,8.93c0.24,0.27,0.49,0.55,0.73,0.83c2.29-1.91,4.43-4.02,6.47-6.19
						c2.32-2.47,4.52-5.06,6.69-7.66c2.27-2.71,4.16-5.63,5.95-8.67c0.67-1.13,1.34-2.27,2.01-3.42c-0.48,0.16-0.97,0.32-1.45,0.49
						C83.33,58.59,73.86,64.51,64.63,70.62z"/>
					<path class="st0" d="M88.52,69.42c-3.9,4.64-7.94,9.18-12.58,13.07c1.55,1.85,3.05,3.73,4.5,5.66
						c9.75-7.84,16.31-19.46,17.47-32.64C95.17,60.41,92.13,65.13,88.52,69.42z"/>
					<path class="st0" d="M54.85,65.72c-5.72-4.05-11.91-7.01-18.54-9.28c-3.75-1.28-7.58-2.32-11.46-3.11v-3.84
						c1.29,0.06,2.34,0.16,3.05,0.42c-0.68-0.59-1.48-1.4-2.24-2.47c-0.01-0.02-0.02-0.03-0.03-0.05c0.94,0.12,1.71,0.34,2.27,0.55
						c-0.68-0.59-1.48-1.4-2.24-2.47c-0.05-0.07-0.1-0.14-0.15-0.21c0.99,0.11,1.8,0.35,2.39,0.56c-0.65-0.57-1.41-1.34-2.15-2.34
						c0.88,0.12,1.61,0.33,2.15,0.53c-0.68-0.59-1.48-1.4-2.24-2.47c-0.57-0.8-0.99-1.56-1.3-2.22c-0.36,0.7-0.82,1.5-1.42,2.33
						c-0.7,0.97-1.42,1.75-2.05,2.36c0.49-0.18,1.19-0.39,2.03-0.52c-0.69,0.95-1.4,1.72-2.03,2.33c0.54-0.2,1.32-0.43,2.27-0.55
						c-0.07,0.1-0.14,0.2-0.22,0.31c-0.7,0.97-1.42,1.75-2.05,2.36c0.52-0.19,1.25-0.41,2.15-0.53c-0.03,0.05-0.07,0.09-0.1,0.14
						c-0.7,0.97-1.42,1.75-2.05,2.36c0.68-0.25,1.74-0.36,3.05-0.42v3.66c-1-0.19-2-0.37-3.01-0.53c-1.88-0.3-3.76-0.59-5.66-0.84
						v-3.56c1.84,0.06,3.34-0.07,4.34,0.32c-0.92-0.85-2.01-2.01-3.05-3.54c-0.02-0.02-0.03-0.05-0.05-0.07
						c1.28,0.17,2.33,0.49,3.1,0.79c-0.92-0.85-2.01-2.01-3.05-3.54c-0.07-0.1-0.14-0.2-0.2-0.31c1.35,0.16,2.46,0.5,3.26,0.81
						c-0.88-0.81-1.93-1.92-2.93-3.36c1.2,0.17,2.2,0.48,2.93,0.76c-0.92-0.85-2.01-2.01-3.05-3.54c-0.78-1.14-1.35-2.24-1.77-3.19
						c-0.48,1.01-1.12,2.15-1.94,3.34c-0.96,1.39-1.93,2.51-2.8,3.39c0.68-0.26,1.62-0.56,2.77-0.74c-0.94,1.37-1.91,2.47-2.77,3.34
						c0.74-0.29,1.8-0.62,3.1-0.79c-0.1,0.15-0.19,0.29-0.3,0.44c-0.96,1.39-1.93,2.51-2.8,3.39c0.71-0.27,1.71-0.59,2.94-0.77
						c-0.05,0.07-0.09,0.14-0.14,0.2c-0.96,1.39-1.93,2.51-2.8,3.39c0.96-0.37,2.46-0.26,4.34-0.32v3.45
						c-3.07-0.38-6.15-0.62-9.24-0.52c-0.35,0.01-0.63,0.04-0.85,0.1c2.38,0.58,4.69,1.45,7,2.31c3.35,1.24,6.78,2.26,10.11,3.55
						C33.6,61.79,44.87,68.63,55.17,76.6c4.96,3.84,9.53,8.1,13.95,12.55c1.28,1.29,2.55,2.61,3.77,3.98
						c1.99-1.05,3.89-2.23,5.69-3.54c-2.69-3.58-5.57-7.02-8.61-10.31C65.37,74.3,60.38,69.64,54.85,65.72z"/>
					<path class="st0" d="M65.41,89.44c-4.38-4.31-8.91-8.4-13.85-12.07c-5.03-3.74-10.31-7.24-15.75-10.36
						c-5.5-3.15-11.28-5.82-17.24-7.98c-2.92-1.06-5.88-1.97-8.8-3.05c-1.99-0.74-4.02-1.52-6.11-2.03c0,0.07,0.01,0.14,0.01,0.22
						c4.31,2.8,8.68,5.5,12.92,8.41c9.21,6.33,17.24,14.06,25.04,22.01c3.73,3.8,7.59,7.53,11.12,11.51
						c0.67,0.75,1.31,1.52,1.94,2.3c5.51-0.44,10.74-1.83,15.56-4C68.69,92.7,67.05,91.05,65.41,89.44z"/>
					<path class="st0" d="M10.33,68.93c-1.75-2.03-3.49-4.06-5.3-6.04c2.52,9.98,8.35,18.98,16.4,25.39
						c3.13,2.5,6.57,4.57,10.21,6.19c-3.82-5.64-8.03-10.99-12.61-16.04C16.13,75.26,13.14,72.19,10.33,68.93z"/>
					<path class="st0" d="M37.89,84.8c-3.87-3.91-7.8-7.76-11.94-11.38c-4.05-3.55-8.31-6.78-12.79-9.77
						c-3.02-2.01-6.08-3.94-9.13-5.9c0,0.01,0,0.02,0,0.03c3.33,3.32,6.35,6.94,9.43,10.49c2.88,3.3,5.98,6.39,8.88,9.67
						c2.79,3.15,5.43,6.42,7.95,9.8c2.05,2.75,3.99,5.58,5.84,8.47c4.73,1.55,9.7,2.36,14.72,2.36c0.1,0,0.21,0,0.31,0
						c-0.72-0.83-1.46-1.64-2.21-2.44C45.33,92.29,41.6,88.55,37.89,84.8z"/>
				</g>
			</g>
		</g>
		<g>
			<path class="st0" d="M48.56,3.14C48.57,3.14,48.57,3.14,48.56,3.14c0.75-0.04,1.51-0.06,2.27-0.07c0.05,0,0.09-0.04,0.09-0.1
				c0-0.05-0.04-0.09-0.09-0.09c0,0,0,0,0,0c-0.76,0-1.52,0.03-2.27,0.07c-0.05,0-0.09,0.05-0.09,0.1
				C48.47,3.1,48.51,3.14,48.56,3.14z"/>
			<path class="st0" d="M31.07,7.51c0.01,0,0.03,0,0.04-0.01c0.68-0.32,1.38-0.63,2.07-0.91c0.05-0.02,0.07-0.08,0.05-0.12
				c-0.02-0.05-0.08-0.07-0.12-0.05c-0.7,0.29-1.4,0.59-2.08,0.92c-0.05,0.02-0.07,0.08-0.05,0.13C31,7.49,31.03,7.51,31.07,7.51z"
				/>
			<path class="st0" d="M23.26,12.13c0.02,0,0.04-0.01,0.06-0.02c0.61-0.44,1.23-0.88,1.86-1.29c0.04-0.03,0.06-0.09,0.03-0.13
				c-0.03-0.04-0.09-0.06-0.13-0.03c-0.63,0.41-1.26,0.85-1.87,1.3c-0.04,0.03-0.05,0.09-0.02,0.13
				C23.21,12.11,23.24,12.13,23.26,12.13z"/>
			<path class="st0" d="M19.73,14.97c0.02,0,0.04-0.01,0.06-0.02c0.56-0.5,1.14-0.99,1.73-1.46c0.04-0.03,0.05-0.09,0.01-0.13
				c-0.03-0.04-0.09-0.05-0.13-0.01c-0.59,0.47-1.17,0.97-1.73,1.47c-0.04,0.03-0.04,0.09-0.01,0.13
				C19.68,14.96,19.71,14.97,19.73,14.97z"/>
			<path class="st0" d="M39.61,4.47c0.01,0,0.02,0,0.02,0c0.73-0.18,1.47-0.35,2.21-0.49c0.05-0.01,0.08-0.06,0.07-0.11
				c-0.01-0.05-0.06-0.09-0.11-0.07c-0.74,0.15-1.48,0.31-2.22,0.5c-0.05,0.01-0.08,0.06-0.07,0.12
				C39.53,4.45,39.57,4.47,39.61,4.47z"/>
			<path class="st0" d="M44.05,3.59c0,0,0.01,0,0.01,0c0.74-0.11,1.5-0.21,2.24-0.28c0.05-0.01,0.09-0.05,0.08-0.1
				c-0.01-0.05-0.05-0.09-0.1-0.08c-0.75,0.08-1.51,0.17-2.25,0.28c-0.05,0.01-0.09,0.06-0.08,0.11
				C43.97,3.56,44.01,3.59,44.05,3.59z"/>
			<path class="st0" d="M27.05,9.63c0.02,0,0.03,0,0.05-0.01c0.65-0.38,1.31-0.75,1.98-1.11c0.05-0.02,0.06-0.08,0.04-0.13
				c-0.02-0.05-0.08-0.06-0.13-0.04C28.32,8.7,27.65,9.07,27,9.46c-0.05,0.03-0.06,0.09-0.03,0.13C26.99,9.62,27.02,9.63,27.05,9.63
				z"/>
			<path class="st0" d="M16.49,18.14c0.03,0,0.05-0.01,0.07-0.03c0.51-0.55,1.04-1.09,1.58-1.62c0.04-0.04,0.04-0.1,0-0.13
				c-0.04-0.04-0.1-0.04-0.13,0c-0.54,0.53-1.07,1.07-1.59,1.63c-0.04,0.04-0.03,0.1,0,0.13C16.44,18.13,16.47,18.14,16.49,18.14z"
				/>
			<path class="st0" d="M5.51,37.71c0.01,0,0.02,0,0.03,0c0.04,0,0.08-0.03,0.09-0.07c0.2-0.72,0.42-1.45,0.65-2.17
				c0.02-0.05-0.01-0.1-0.06-0.12c-0.05-0.02-0.1,0.01-0.12,0.06c-0.24,0.72-0.46,1.45-0.66,2.17C5.43,37.65,5.46,37.7,5.51,37.71z"
				/>
			<path class="st0" d="M4.53,42.14c0.01,0,0.01,0,0.02,0c0.05,0,0.09-0.03,0.09-0.08c0.13-0.74,0.28-1.49,0.44-2.22
				c0.01-0.05-0.02-0.1-0.07-0.11c-0.05-0.01-0.1,0.02-0.11,0.07c-0.17,0.74-0.31,1.48-0.44,2.23C4.44,42.08,4.47,42.13,4.53,42.14z
				"/>
			<path class="st0" d="M6.92,33.41c0.01,0,0.02,0.01,0.03,0.01c0.04,0,0.07-0.02,0.09-0.06c0.27-0.7,0.56-1.4,0.86-2.09
				c0.02-0.05,0-0.1-0.05-0.13c-0.05-0.02-0.1,0-0.13,0.05c-0.3,0.69-0.59,1.39-0.86,2.1C6.85,33.33,6.87,33.39,6.92,33.41z"/>
			<path class="st0" d="M13.57,21.6c0.03,0,0.06-0.01,0.08-0.04c0.46-0.6,0.94-1.19,1.42-1.76c0.03-0.04,0.03-0.1-0.01-0.13
				c-0.04-0.03-0.1-0.03-0.13,0.01c-0.48,0.57-0.96,1.17-1.42,1.77c-0.03,0.04-0.02,0.1,0.02,0.13
				C13.53,21.59,13.55,21.6,13.57,21.6z"/>
			<path class="st0" d="M10.93,25.31c0.02,0.01,0.03,0.01,0.05,0.01c0.03,0,0.06-0.02,0.08-0.04c0.4-0.64,0.82-1.27,1.24-1.89
				c0.03-0.04,0.02-0.1-0.02-0.13c-0.04-0.03-0.1-0.02-0.13,0.02c-0.43,0.62-0.85,1.26-1.25,1.9
				C10.88,25.22,10.89,25.28,10.93,25.31z"/>
			<path class="st0" d="M8.73,29.26c0.01,0.01,0.03,0.01,0.04,0.01c0.03,0,0.07-0.02,0.09-0.05c0.33-0.67,0.69-1.34,1.06-2
				c0.03-0.05,0.01-0.1-0.04-0.13c-0.05-0.03-0.1-0.01-0.13,0.04c-0.37,0.66-0.73,1.33-1.06,2C8.67,29.18,8.68,29.24,8.73,29.26z"/>
			<path class="st0" d="M70.59,7.28c0.68,0.31,1.36,0.64,2.03,0.98c0.01,0.01,0.03,0.01,0.04,0.01c0.03,0,0.07-0.02,0.08-0.05
				c0.02-0.05,0.01-0.1-0.04-0.13c-0.67-0.34-1.36-0.68-2.04-0.99c-0.05-0.02-0.1,0-0.13,0.05C70.52,7.2,70.54,7.25,70.59,7.28z"/>
			<path class="st0" d="M94.06,30.77c0.02,0.03,0.05,0.06,0.09,0.06c0.01,0,0.03,0,0.04-0.01c0.05-0.02,0.07-0.08,0.05-0.13
				c-0.31-0.69-0.64-1.37-0.99-2.05c-0.02-0.05-0.08-0.06-0.13-0.04c-0.05,0.02-0.07,0.08-0.04,0.13
				C93.42,29.4,93.75,30.09,94.06,30.77z"/>
			<path class="st0" d="M92,26.74c0.02,0.03,0.05,0.05,0.08,0.05c0.02,0,0.03,0,0.05-0.01c0.05-0.03,0.06-0.08,0.04-0.13
				c-0.38-0.65-0.77-1.31-1.18-1.94c-0.03-0.04-0.09-0.06-0.13-0.03c-0.04,0.03-0.06,0.09-0.03,0.13
				C91.22,25.44,91.62,26.09,92,26.74z"/>
			<path class="st0" d="M89.55,22.93c0.02,0.03,0.05,0.04,0.08,0.04c0.02,0,0.04-0.01,0.06-0.02c0.04-0.03,0.05-0.09,0.02-0.13
				c-0.44-0.62-0.9-1.23-1.36-1.82c-0.03-0.04-0.09-0.05-0.13-0.02c-0.04,0.03-0.05,0.09-0.02,0.13
				C88.66,21.7,89.11,22.31,89.55,22.93z"/>
			<path class="st0" d="M95.73,34.98c0.01,0.04,0.05,0.06,0.09,0.06c0.01,0,0.02,0,0.03-0.01c0.05-0.02,0.08-0.07,0.06-0.12
				c-0.24-0.71-0.51-1.43-0.79-2.14c-0.02-0.05-0.07-0.07-0.12-0.05c-0.05,0.02-0.07,0.07-0.05,0.12
				C95.23,33.56,95.49,34.27,95.73,34.98z"/>
			<path class="st0" d="M98.31,48.37C98.31,48.37,98.31,48.37,98.31,48.37c0.06,0,0.1-0.05,0.09-0.1c-0.03-0.75-0.08-1.52-0.15-2.27
				c0-0.05-0.05-0.09-0.1-0.09c-0.05,0-0.09,0.05-0.09,0.1c0.07,0.75,0.11,1.51,0.15,2.26C98.22,48.33,98.26,48.37,98.31,48.37z"/>
			<path class="st0" d="M86.75,19.37c0.02,0.02,0.05,0.03,0.07,0.03c0.02,0,0.04-0.01,0.06-0.02c0.04-0.03,0.04-0.09,0.01-0.13
				c-0.49-0.57-1.01-1.14-1.53-1.68c-0.04-0.04-0.1-0.04-0.13,0c-0.04,0.04-0.04,0.1,0,0.13C85.75,18.24,86.26,18.8,86.75,19.37z"/>
			<path class="st0" d="M97.91,43.86c0,0,0.01,0,0.01,0c0.05-0.01,0.09-0.05,0.08-0.11c-0.1-0.75-0.22-1.5-0.36-2.24
				c-0.01-0.05-0.06-0.09-0.11-0.08c-0.05,0.01-0.09,0.06-0.08,0.11c0.14,0.74,0.26,1.49,0.36,2.23
				C97.82,43.82,97.86,43.86,97.91,43.86z"/>
			<path class="st0" d="M96.99,39.33c0.01,0.04,0.05,0.07,0.09,0.07c0.01,0,0.01,0,0.02,0c0.05-0.01,0.08-0.06,0.07-0.11
				c-0.17-0.73-0.37-1.47-0.58-2.2c-0.01-0.05-0.07-0.08-0.12-0.06c-0.05,0.01-0.08,0.07-0.06,0.12
				C96.62,37.86,96.81,38.6,96.99,39.33z"/>
			<path class="st0" d="M57.6,3.52c0.74,0.1,1.49,0.22,2.23,0.36c0.01,0,0.01,0,0.02,0c0.04,0,0.08-0.03,0.09-0.08
				c0.01-0.05-0.02-0.1-0.08-0.11c-0.74-0.14-1.5-0.26-2.24-0.36c-0.05-0.01-0.1,0.03-0.11,0.08C57.51,3.46,57.55,3.51,57.6,3.52z"
				/>
			<path class="st0" d="M83.63,16.1c0.02,0.02,0.04,0.03,0.07,0.03c0.03,0,0.05-0.01,0.07-0.03c0.04-0.04,0.03-0.1,0-0.13
				c-0.55-0.52-1.11-1.04-1.68-1.53c-0.04-0.03-0.1-0.03-0.13,0.01c-0.03,0.04-0.03,0.1,0.01,0.13
				C82.52,15.06,83.09,15.58,83.63,16.1z"/>
			<path class="st0" d="M53.09,3.11c0.75,0.03,1.51,0.08,2.26,0.15c0,0,0.01,0,0.01,0c0.05,0,0.09-0.04,0.09-0.09
				c0-0.05-0.03-0.1-0.09-0.1C54.62,3,53.86,2.95,53.1,2.92c-0.05,0-0.1,0.04-0.1,0.09C53,3.07,53.04,3.11,53.09,3.11z"/>
			<path class="st0" d="M66.39,5.61c0.71,0.24,1.42,0.51,2.12,0.78c0.01,0,0.02,0.01,0.04,0.01c0.04,0,0.07-0.02,0.09-0.06
				c0.02-0.05,0-0.1-0.05-0.12c-0.7-0.28-1.42-0.54-2.13-0.79c-0.05-0.02-0.1,0.01-0.12,0.06C66.31,5.54,66.34,5.59,66.39,5.61z"/>
			<path class="st0" d="M62.04,4.35c0.73,0.17,1.47,0.37,2.19,0.58c0.01,0,0.02,0,0.03,0c0.04,0,0.08-0.03,0.09-0.07
				c0.01-0.05-0.01-0.1-0.06-0.12c-0.72-0.21-1.46-0.4-2.2-0.58c-0.05-0.01-0.1,0.02-0.11,0.07C61.96,4.29,61.99,4.34,62.04,4.35z"
				/>
			<path class="st0" d="M80.22,13.13c0.02,0.01,0.04,0.02,0.06,0.02c0.03,0,0.06-0.01,0.07-0.04c0.03-0.04,0.03-0.1-0.02-0.13
				c-0.59-0.47-1.2-0.92-1.82-1.36c-0.04-0.03-0.1-0.02-0.13,0.02c-0.03,0.04-0.02,0.1,0.02,0.13
				C79.02,12.21,79.62,12.67,80.22,13.13z"/>
			<path class="st0" d="M74.6,9.34c0.65,0.37,1.3,0.77,1.93,1.17c0.02,0.01,0.03,0.02,0.05,0.02c0.03,0,0.06-0.02,0.08-0.04
				c0.03-0.04,0.02-0.1-0.03-0.13C76,9.95,75.35,9.55,74.7,9.17c-0.05-0.03-0.1-0.01-0.13,0.03C74.54,9.26,74.56,9.31,74.6,9.34z"/>
			<path class="st0" d="M3.97,46.64C3.97,46.64,3.97,46.64,3.97,46.64c0.06,0,0.1-0.04,0.1-0.09c0.06-0.75,0.13-1.51,0.23-2.25
				c0.01-0.05-0.03-0.1-0.08-0.11c-0.05-0.01-0.1,0.03-0.11,0.08c-0.09,0.75-0.17,1.51-0.23,2.26C3.88,46.59,3.92,46.63,3.97,46.64z
				"/>
			<path class="st0" d="M35.27,5.79c0.01,0,0.02,0,0.03-0.01c0.71-0.25,1.43-0.49,2.15-0.71C37.5,5.06,37.53,5,37.52,4.95
				C37.5,4.9,37.45,4.88,37.4,4.89c-0.72,0.22-1.45,0.46-2.16,0.71c-0.05,0.02-0.08,0.07-0.06,0.12
				C35.19,5.76,35.23,5.79,35.27,5.79z"/>
			<path class="st0" d="M98.38,52.81c0,0.05-0.04,0.09-0.09,0.09c0,0,0,0-0.01,0c-0.05,0-0.09-0.05-0.09-0.1
				c0.04-0.75,0.06-1.51,0.07-2.26c0-0.05,0.04-0.09,0.09-0.09c0,0,0,0,0,0c0.05,0,0.09,0.04,0.09,0.1
				C98.44,51.3,98.42,52.06,98.38,52.81z"/>
			<path class="st0" d="M98.35,50.45C98.35,50.45,98.35,50.45,98.35,50.45c-0.05,0-0.1,0.04-0.1,0.09c0,0.75-0.03,1.51-0.07,2.26
				c0,0.05,0.04,0.1,0.09,0.1c0,0,0,0,0.01,0c0.05,0,0.09-0.04,0.09-0.09c0.04-0.75,0.06-1.52,0.07-2.27
				C98.44,50.49,98.4,50.45,98.35,50.45z"/>
		</g>
	</g>
</g>
</svg>
